# xmcd
#
# Track frame offsets:
#	150
#	12781
#	25758
#	39932
#	40840
#	52665
#	66569
#	79371
#	89762
#	106027
#	119802
#	133920
#	145988
#	158483
#	171527
#	183324
#	190158
#
# Disc length: 2715 seconds
#
# Revision: 0
# Processed by: cddbd v1.5.2PL0 Copyright (c) Steve Scherf et al.
# Submitted via: EasyCDDAExtractor 12.0.1.1
#
DISCID=e90a9911
DTITLE=Earls Of Leicester - Rattle and Roar
DYEAR=2016
DGENRE=Bluegrass
TTITLE0=The Train that Carried My Girl from Town
TTITLE1=Why Did You Wander?
TTITLE2=All I Want is You
TTITLE3=Steel Guitar Blues Intro 
TTITLE4=Steel Guitar Blues
TTITLE5=You Can Feel It in Your Soul
TTITLE6=A Faded Red Ribbon
TTITLE7=Just Ain't
TTITLE8=Mother Prays Loud in Her Sleep
TTITLE9=I'm Working on a Road (To Glory Land)
TTITLE10=Will You Be Lonesome Too?
TTITLE11=Flint Hill Special
TTITLE12=What's Good for You (Should Be Alright for Me)
TTITLE13=The Girl I Love Don't Pay Me No Mind
TTITLE14=Branded Wherever I Go
TTITLE15=Buck Creek Gal
TTITLE16=Pray for the Boys 
EXTD=
EXTT0=
EXTT1=
EXTT2=
EXTT3=
EXTT4=
EXTT5=
EXTT6=
EXTT7=
EXTT8=
EXTT9=
EXTT10=
EXTT11=
EXTT12=
EXTT13=
EXTT14=
EXTT15=
EXTT16=
PLAYORDER=
